<?xml version="1.0" encoding="UTF-8"?>
<svg width="168px" height="42px" viewBox="0 0 168 42" version="1.1" xmlns="http://www.w3.org/2000/svg" xmlns:xlink="http://www.w3.org/1999/xlink">
    <!-- Generator: Sketch 53.1 (72631) - https://sketchapp.com -->
    <title>LOGO/公司logo/标志/蓝色</title>
    <desc>Created with Sketch.</desc>
    <g id="网站设计" stroke="none" stroke-width="1" fill="none" fill-rule="evenodd">
        <g id="首页" transform="translate(-636.000000, -598.000000)">
            <g id="分组" transform="translate(540.000000, 488.000000)">
                <g id="LOGO/公司logo/标志/蓝色" transform="translate(96.000000, 110.000000)">
                    <g id="Page-1">
                        <path d="M0.000218181818,42 L0.000218181818,7.12342105 C0.000218181818,3.18923684 3.15733126,0 7.05256315,0 L160.947326,0 C164.842558,0 168.000218,3.18923684 168.000218,7.12342105 L168.000218,34.8765789 C168.000218,38.8107632 164.842558,42 160.947326,42 L0.000218181818,42 Z" id="Fill-1" fill="#2D8CEF"></path>
                        <path d="M108.085527,26.4411 C112.415891,26.4411 113.406982,23.4773368 113.406982,20.2621263 C113.406982,16.8015474 112.254436,14.4036789 108.085527,14.4036789 L106.176436,14.4036789 L106.176436,26.4411 L108.085527,26.4411 Z M108.220255,10.9707316 C114.836073,10.9707316 117.334255,15.1939421 117.334255,20.2621263 C117.334255,25.3037842 114.621164,29.8740474 108.166255,29.8740474 L102.330436,29.8740474 L102.330436,10.9707316 L108.220255,10.9707316 Z M126.363218,26.8024658 C128.084673,26.8024658 129.590673,25.2760974 129.590673,23.0683342 C129.590673,20.7793342 128.192673,19.2817026 126.390491,19.2817026 C124.131218,19.2817026 123.055036,21.1617553 123.055036,23.0418079 C123.055036,24.9489395 124.103945,26.8024658 126.363218,26.8024658 Z M129.536673,18.1913605 L129.536673,16.5014132 L133.033036,16.5014132 L133.033036,29.5540184 L129.536673,29.5540184 L129.536673,27.9187816 L129.429218,27.9187816 C128.595218,29.0367553 127.331945,29.9900447 125.233582,29.9900447 C122.732673,29.9900447 119.370491,27.9464132 119.370491,23.0147289 C119.370491,18.8180447 122.221582,16.1477289 125.502491,16.1477289 C127.520127,16.1477289 128.729945,17.1551763 129.429218,18.1913605 L129.536673,18.1913605 Z M140.4954,24.6761605 C140.4954,26.2025289 140.952491,26.6114763 142.108855,26.6114763 C142.593218,26.6114763 143.211764,26.5296868 143.668855,26.3937395 L143.668855,29.3906605 C142.915582,29.60895 141.893945,29.74545 141.140673,29.74545 C137.913218,29.74545 136.837582,27.8913711 136.837582,25.0585816 L136.837582,19.6079763 L135.277582,19.6079763 L135.277582,16.5016342 L136.837582,16.5016342 L136.837582,12.3320289 L140.4954,12.3320289 L140.4954,16.5016342 L143.534673,16.5016342 L143.534673,19.6079763 L140.4954,19.6079763 L140.4954,24.6761605 Z M152.161036,26.8024658 C153.882491,26.8024658 155.388491,25.2760974 155.388491,23.0683342 C155.388491,20.7793342 153.990491,19.2817026 152.188309,19.2817026 C149.929036,19.2817026 148.852855,21.1617553 148.852855,23.0418079 C148.852855,24.9489395 149.901764,26.8024658 152.161036,26.8024658 Z M155.334491,16.5014132 L158.830855,16.5014132 L158.830855,29.5540184 L155.334491,29.5540184 L155.334491,27.9187816 L155.227036,27.9187816 C154.393036,29.0367553 153.129764,29.9900447 151.0314,29.9900447 C148.530491,29.9900447 145.168309,27.9464132 145.168309,23.0147289 C145.168309,18.8180447 148.0194,16.1477289 151.300309,16.1477289 C153.317945,16.1477289 154.527764,17.1551763 155.227036,18.1913605 L155.334491,18.1913605 L155.334491,16.5014132 Z M30.963,26.8024658 C32.6844545,26.8024658 34.1904545,25.2760974 34.1904545,23.0683342 C34.1904545,20.7793342 32.7919091,19.2817026 30.9902727,19.2817026 C28.731,19.2817026 27.6548182,21.1617553 27.6548182,23.0418079 C27.6548182,24.9489395 28.7037273,26.8024658 30.963,26.8024658 Z M34.1364545,18.1913605 L34.1364545,16.5014132 L37.6328182,16.5014132 L37.6328182,29.5540184 L34.1364545,29.5540184 L34.1364545,27.9187816 L34.029,27.9187816 C33.195,29.0367553 31.9317273,29.9900447 29.8333636,29.9900447 C27.3324545,29.9900447 23.9702727,27.9464132 23.9702727,23.0147289 C23.9702727,18.8180447 26.8213636,16.1477289 30.1022727,16.1477289 C32.1199091,16.1477289 33.3297273,17.1551763 34.029,18.1913605 L34.1364545,18.1913605 Z M41.3465455,29.5392632 L41.3465455,9.91973684 L44.9770909,9.91973684 L44.9770909,29.5392632 L41.3465455,29.5392632 Z M60.7677818,16.5014684 L55.6039636,21.8697316 L61.5477818,29.5540737 L57.1634182,29.5540737 L53.1025091,24.1858105 L52.2685091,25.0037053 L52.2685091,29.5540737 L48.6379636,29.5540737 L48.6379636,9.93454737 L52.2685091,9.93454737 L52.2685091,20.9158895 L56.3566909,16.5014684 L60.7677818,16.5014684 Z M63.2618182,29.5541842 L63.2618182,16.5015789 L66.8923636,16.5015789 L66.8923636,29.5541842 L63.2618182,29.5541842 Z M77.7304909,16.0926868 C80.6355818,16.0926868 82.6526727,18.0550816 82.6526727,22.0605553 L82.6526727,29.5542395 L79.0215818,29.5542395 L79.0215818,22.3059237 C79.0215818,20.3440816 78.1074,19.3355289 76.6014,19.3355289 C75.0146727,19.3355289 73.8577636,20.4805816 73.8577636,22.6596079 L73.8577636,29.5542395 L70.2272182,29.5542395 L70.2272182,16.5016342 L73.8043091,16.5016342 L73.8043091,18.1368711 L73.9117636,18.1368711 C74.7992182,16.6928447 76.2517636,16.0926868 77.7304909,16.0926868 Z M63.1265455,14.1274737 L63.1265455,10.5370263 L67.0276364,10.5370263 L67.0276364,14.1274737 L63.1265455,14.1274737 Z M92.0829818,26.6387763 C93.8851636,26.6387763 95.3644364,25.1400395 95.3644364,22.9869868 C95.3644364,20.75325 93.9386182,19.2815921 92.1102545,19.2815921 C89.9317091,19.2815921 88.8020727,21.1345658 88.8020727,22.9599079 C88.8020727,24.7587237 89.8237091,26.6387763 92.0829818,26.6387763 Z M95.3911636,18.0829342 L95.3911636,16.5013026 L98.7800727,16.5013026 L98.7800727,29.5047237 C98.7800727,33.8843289 95.8891636,36.28275 91.7322545,36.28275 C89.4195273,36.28275 87.4646182,35.5858816 85.8408,34.1628553 L87.5202545,31.8755132 C88.5931636,32.6845658 89.9426182,33.1587237 91.3466182,33.1587237 C93.4940727,33.1587237 95.3857091,32.0153289 95.3857091,29.1140132 L95.3857091,27.9739342 L95.3104364,27.9739342 C94.4497091,29.0090132 93.1858909,29.8539868 91.1955273,29.8539868 C87.8606182,29.8539868 85.1169818,27.2101974 85.1169818,22.9869868 C85.1169818,19.06275 87.7798909,16.0929079 91.3569818,16.0929079 C93.4008,16.0929079 94.6111636,17.1556184 95.2564364,18.0829342 L95.3911636,18.0829342 Z M14.1836182,9.93449211 L26.3788909,9.93449211 L26.3788909,12.8783605 C26.3788909,13.3569395 25.9959818,13.7454395 25.5230727,13.7454395 L19.6790727,13.7454395 L19.6790727,27.0085974 C19.6790727,27.0108079 19.6774364,29.5540184 19.6752545,29.5540184 L16.0414364,29.5540184 L16.0414364,13.7454395 L14.1683455,13.7454395 C13.6998,13.7454395 13.3201636,13.3492026 13.3201636,12.8744921 L13.3201636,10.8093079 C13.3201636,10.3263079 13.7068909,9.93449211 14.1836182,9.93449211 Z" id="合并形状" fill="#FFFFFF"></path>
                        <path d="M11.4127636,13.7494184 L8.84912727,13.7494184 C8.51749091,13.7494184 8.24803636,13.4769711 8.24803636,13.1404184 L8.24803636,9.93460263 L11.4127636,9.93460263 C11.7444,9.93460263 12.0138545,10.20705 12.0138545,10.54305 L12.0138545,13.1404184 C12.0138545,13.4769711 11.7444,13.7494184 11.4127636,13.7494184" id="Fill-22" fill="#2DF4BD"></path>
                    </g>
                </g>
            </g>
        </g>
    </g>
</svg>