<?xml version="1.0" encoding="UTF-8"?>
<svg width="155px" height="193px" viewBox="0 0 155 193" version="1.1" xmlns="http://www.w3.org/2000/svg" xmlns:xlink="http://www.w3.org/1999/xlink">
    <!-- Generator: Sketch 53.1 (72631) - https://sketchapp.com -->
    <title>1</title>
    <desc>Created with Sketch.</desc>
    <g id="网站设计" stroke="none" stroke-width="1" fill="none" fill-rule="evenodd">
        <g id="首页" transform="translate(-259.000000, -639.000000)" fill-rule="nonzero">
            <g id="分组" transform="translate(156.000000, 472.000000)">
                <g id="分组-2" transform="translate(0.000000, 137.000000)">
                    <g id="1" transform="translate(103.000000, 30.000000)">
                        <g id="Group" transform="translate(16.000000, 64.000000)">
                            <g transform="translate(20.541667, 12.727273)" id="Shape">
                                <polygon fill="#B24717" points="97.525 28.3181818 97.3291667 85.7818182 48.7625 57.8318182 48.9583333 0.172727273"></polygon>
                                <polygon fill="#FF9E73" points="48.9583333 0.172727273 48.7625 57.8318182 0.391666667 85.7818182 0.5875 28.3181818"></polygon>
                            </g>
                            <path d="M69.3041667,0.977272727 L138.825,41.0454545 L69.6958333,81.1136364 L0.370833333,41.0454545 L69.3041667,0.977272727 Z M69.6958333,68.9954545 L118.066667,41.0454545 L69.5,12.9 L21.1291667,41.0454545 L69.6958333,68.9954545 L69.6958333,68.9954545 Z" id="Shape" fill="#F8FBFF"></path>
                            <polygon id="Shape" fill="#FF9E73" points="138.825 41.0454545 138.629167 88.7363636 69.6958333 128.804545 69.6958333 81.1136364"></polygon>
                            <polygon id="Shape" fill="#B24717" points="69.6958333 81.1136364 69.6958333 128.804545 0.175 88.7363636 0.370833333 41.0454545"></polygon>
                        </g>
                        <g id="Group" transform="translate(102.000000, 35.000000)">
                            <path d="M30.9094737,12.0683908 L30.9094737,15.3829023 L4.67368421,30.3956897 L4.67368421,27.2761494 L30.9094737,12.0683908 Z M22.6863158,36.0498563 L22.6863158,39.1693966 L14.4631579,44.0436782 L14.2673684,40.7291667 L22.6863158,36.0498563 Z M17.2042105,34.2951149 L17.2042105,37.6096264 L4.67368421,44.8235632 L4.67368421,41.5090517 L17.2042105,34.2951149 Z M28.1684211,18.5024425 L28.1684211,21.6219828 L21.3157895,25.7163793 L21.3157895,22.4018678 L28.1684211,18.5024425 Z M25.4273684,24.9364943 L25.4273684,28.0560345 L4.67368421,39.9492816 L4.67368421,36.8297414 L25.4273684,24.9364943 Z M11.5263158,28.0560345 L11.5263158,31.1755747 L4.67368421,35.2699713 L4.67368421,32.150431 L11.5263158,28.0560345 Z" id="合并形状" fill="#F27036"></path>
                            <polygon id="Shape" fill="#FFFFFF" points="12.8968421 41.5090517 12.8968421 44.8235632 4.67368421 49.5028736 4.67368421 46.3833333"></polygon>
                            <polygon id="Shape" fill="#FFFFFF" points="31.1052632 26.4962644 31.1052632 29.6158046 18.3789474 36.8297414 18.3789474 33.7102011"></polygon>
                            <polygon id="Shape" fill="#FFFFFF" points="19.9452632 23.1817529 19.9452632 26.4962644 12.8968421 30.3956897 12.8968421 27.2761494"></polygon>
                            <polygon id="Shape" fill="#FFFFFF" points="18.3789474 14.6030172 18.3789474 17.7225575 4.67368421 25.7163793 4.47789474 22.5968391"></polygon>
                            <path d="M0.366315789,20.0622126 L35.0210526,0.175143678 L35.2168421,47.9431034 L0.562105263,67.8301724 L0.366315789,20.0622126 Z M30.9094737,15.3829023 L30.9094737,12.2633621 L4.67368421,27.2761494 L4.67368421,30.3956897 L30.9094737,15.3829023 L30.9094737,15.3829023 Z M4.67368421,36.8297414 L4.67368421,39.9492816 L25.4273684,28.0560345 L25.4273684,24.9364943 L4.67368421,36.8297414 L4.67368421,36.8297414 Z M4.47789474,22.5968391 L4.47789474,25.7163793 L18.3789474,17.7225575 L18.3789474,14.6030172 L4.47789474,22.5968391 L4.47789474,22.5968391 Z M31.1052632,29.6158046 L31.1052632,26.4962644 L18.3789474,33.7102011 L18.3789474,36.8297414 L31.1052632,29.6158046 L31.1052632,29.6158046 Z M4.67368421,41.5090517 L4.67368421,44.628592 L17.2042105,37.4146552 L17.2042105,34.2951149 L4.67368421,41.5090517 L4.67368421,41.5090517 Z M12.8968421,44.8235632 L12.8968421,41.704023 L4.67368421,46.3833333 L4.67368421,49.5028736 L12.8968421,44.8235632 L12.8968421,44.8235632 Z M22.6863158,39.1693966 L22.6863158,36.0498563 L14.2673684,40.9241379 L14.2673684,44.0436782 L22.6863158,39.1693966 L22.6863158,39.1693966 Z M12.8968421,30.3956897 L19.7494737,26.4962644 L19.7494737,23.3767241 L12.8968421,27.2761494 L12.8968421,30.3956897 L12.8968421,30.3956897 Z M21.3157895,25.7163793 L28.1684211,21.816954 L28.1684211,18.6974138 L21.3157895,22.5968391 L21.3157895,25.7163793 L21.3157895,25.7163793 Z M4.67368421,32.150431 L4.67368421,35.2699713 L11.5263158,31.370546 L11.5263158,28.2510057 L4.67368421,32.150431 L4.67368421,32.150431 Z" id="Shape" fill="#FF9E73"></path>
                        </g>
                        <g id="Group" transform="translate(34.000000, 18.000000)">
                            <path d="M18.2789474,15.5428571 L18.2789474,18.6514286 L4.45263158,10.6857143 L4.45263158,7.57714286 L18.2789474,15.5428571 Z M25.0947368,33.8057143 L25.0947368,36.9142857 L4.45263158,24.8685714 L4.45263158,21.76 L25.0947368,33.8057143 Z M25.0947368,28.9485714 L25.0947368,32.0571429 L4.45263158,20.2057143 L4.45263158,17.0971429 L25.0947368,28.9485714 Z M4.25789474,34.3885714 L4.45263158,31.28 L12.6315789,36.1371429 L12.6315789,39.2457143 L4.25789474,34.3885714 Z M16.9157895,33.8057143 L16.9157895,36.9142857 L4.45263158,29.7257143 L4.45263158,26.6171429 L16.9157895,33.8057143 Z M30.7421053,27.3942857 L30.7421053,30.5028571 L4.45263158,15.5428571 L4.45263158,12.24 L30.7421053,27.3942857 Z" id="合并形状" fill="#B24717"></path>
                            <g fill="#FFFFFF" id="Shape">
                                <path d="M0.363157895,0.388571429 L34.8315789,20.2057143 L34.6368421,67.8057143 L0.168421053,47.9885714 L0.363157895,0.388571429 Z M30.7421053,30.5028571 L30.7421053,27.3942857 L4.45263158,12.24 L4.45263158,15.3485714 L30.7421053,30.5028571 L30.7421053,30.5028571 Z M25.0947368,32.0571429 L25.0947368,28.9485714 L4.45263158,17.0971429 L4.45263158,20.2057143 L25.0947368,32.0571429 L25.0947368,32.0571429 Z M25.0947368,36.9142857 L25.0947368,33.8057143 L4.45263158,21.9542857 L4.45263158,25.0628571 L25.0947368,36.9142857 L25.0947368,36.9142857 Z M4.45263158,7.57714286 L4.45263158,10.6857143 L18.2789474,18.6514286 L18.2789474,15.5428571 L4.45263158,7.57714286 L4.45263158,7.57714286 Z M16.9157895,36.9142857 L16.9157895,33.8057143 L4.45263158,26.6171429 L4.45263158,29.7257143 L16.9157895,36.9142857 L16.9157895,36.9142857 Z M12.6315789,39.2457143 L12.6315789,36.1371429 L4.25789474,31.28 L4.25789474,34.3885714 L12.6315789,39.2457143 L12.6315789,39.2457143 Z"></path>
                            </g>
                        </g>
                        <polygon id="Shape" fill="#B24717" points="70 0 88 10.2 87.8 35 70 24.6"></polygon>
                        <polygon id="Shape" fill="#B24717" points="0 51 18 61.2 17.8 86 0 75.6"></polygon>
                        <polygon id="Shape" fill="#FFFFFF" opacity="0.800223214" points="115 32.8 97 43 97 18.4 115 8"></polygon>
                    </g>
                </g>
            </g>
        </g>
    </g>
</svg>