<?xml version="1.0" standalone="no"?>
<!DOCTYPE svg PUBLIC "-//W3C//DTD SVG 1.1//EN" "http://www.w3.org/Graphics/SVG/1.1/DTD/svg11.dtd" >
<!--
2013-9-30: Created.
-->
<svg>
<metadata>
Created by iconfont
</metadata>
<defs>

<font id="i-td" horiz-adv-x="1024" >
  <font-face
    font-family="i-td"
    font-weight="500"
    font-stretch="normal"
    units-per-em="1024"
    ascent="896"
    descent="-128"
  />
    <missing-glyph />
    
    <glyph glyph-name="radio_button_checked" unicode="&#61524;" d="M512 810.666667C276.48 810.666667 85.333333 619.52 85.333333 384s191.146667-426.666667 426.666667-426.666667 426.666667 191.146667 426.666667 426.666667S747.52 810.666667 512 810.666667z m0-768c-188.586667 0-341.333333 152.746667-341.333333 341.333333s152.746667 341.333333 341.333333 341.333333 341.333333-152.746667 341.333333-341.333333-152.746667-341.333333-341.333333-341.333333z m0 128a213.333333 213.333333 0 1 1 0 426.666666 213.333333 213.333333 0 0 1 0-426.666666z"  horiz-adv-x="1024" />

    
    <glyph glyph-name="indeterminate_check_" unicode="&#61525;" d="M810.666667 768H213.333333c-46.933333 0-85.333333-38.4-85.333333-85.333333v-597.333334c0-46.933333 38.4-85.333333 85.333333-85.333333h597.333334c46.933333 0 85.333333 38.4 85.333333 85.333333V682.666667c0 46.933333-38.4 85.333333-85.333333 85.333333z m-85.333334-426.666667H298.666667v85.333334h426.666666z"  horiz-adv-x="1024" />

    
    <glyph glyph-name="radio_button_uncheck" unicode="&#61526;" d="M512 810.666667C276.48 810.666667 85.333333 619.52 85.333333 384s191.146667-426.666667 426.666667-426.666667 426.666667 191.146667 426.666667 426.666667S747.52 810.666667 512 810.666667z m0-768c-188.586667 0-341.333333 152.746667-341.333333 341.333333s152.746667 341.333333 341.333333 341.333333 341.333333-152.746667 341.333333-341.333333-152.746667-341.333333-341.333333-341.333333z"  horiz-adv-x="1024" />

    
    <glyph glyph-name="check_box_px" unicode="&#61527;" d="M810.666667 768H213.333333a85.333333 85.333333 0 0 1-85.333333-85.333333v-597.333334a85.333333 85.333333 0 0 1 85.333333-85.333333h597.333334a85.333333 85.333333 0 0 1 85.333333 85.333333V682.666667a85.333333 85.333333 0 0 1-85.333333 85.333333z m-384-597.333333l-213.333334 213.333333 60.16 60.16L426.666667 291.413333l323.84 323.84L810.666667 554.666667z"  horiz-adv-x="1024" />

    
    <glyph glyph-name="check_box_outline_bl" unicode="&#61528;" d="M810.666667 682.666667v-597.333334H213.333333V682.666667z m0 85.333333H213.333333c-46.933333 0-85.333333-38.4-85.333333-85.333333v-597.333334c0-46.933333 38.4-85.333333 85.333333-85.333333h597.333334c46.933333 0 85.333333 38.4 85.333333 85.333333V682.666667c0 46.933333-38.4 85.333333-85.333333 85.333333z"  horiz-adv-x="1024" />

    
    <glyph glyph-name="person_px" unicode="&#61541;" d="M512 384c94.293333 0 170.666667 76.373333 170.666667 170.666667s-76.373333 170.666667-170.666667 170.666666-170.666667-76.373333-170.666667-170.666666 76.373333-170.666667 170.666667-170.666667z m0-85.333333c-113.92 0-341.333333-57.173333-341.333333-170.666667v-85.333333h682.666666v85.333333c0 113.493333-227.413333 170.666667-341.333333 170.666667z"  horiz-adv-x="1024" />

    
    <glyph glyph-name="do_disturb_on_px" unicode="&#61622;" d="M512 810.666667C276.48 810.666667 85.333333 619.52 85.333333 384s191.146667-426.666667 426.666667-426.666667 426.666667 191.146667 426.666667 426.666667S747.52 810.666667 512 810.666667z m213.333333-469.333334H298.666667v85.333334h426.666666z"  horiz-adv-x="1024" />

    
    <glyph glyph-name="more_vert_px" unicode="&#61644;" d="M512 554.666667c46.933333 0 85.333333 38.4 85.333333 85.333333s-38.4 85.333333-85.333333 85.333333-85.333333-38.4-85.333333-85.333333 38.4-85.333333 85.333333-85.333333z m0-85.333334c-46.933333 0-85.333333-38.4-85.333333-85.333333s38.4-85.333333 85.333333-85.333333 85.333333 38.4 85.333333 85.333333-38.4 85.333333-85.333333 85.333333z m0-256c-46.933333 0-85.333333-38.4-85.333333-85.333333s38.4-85.333333 85.333333-85.333333 85.333333 38.4 85.333333 85.333333-38.4 85.333333-85.333333 85.333333z"  horiz-adv-x="1024" />

    
    <glyph glyph-name="refresh_px" unicode="&#61645;" d="M753.066667 625.066667A339.541333 339.541333 0 0 1 512 725.333333c-188.586667 0-340.906667-152.746667-340.906667-341.333333s152.32-341.333333 340.906667-341.333333c159.146667 0 291.84 108.8 329.813333 256h-88.746666A255.573333 255.573333 0 0 0 512 128c-141.226667 0-256 114.773333-256 256s114.773333 256 256 256c70.826667 0 133.973333-29.44 180.053333-75.946667L554.666667 426.666667h298.666666V725.333333z"  horiz-adv-x="1024" />

    
    <glyph glyph-name="more_horiz_px" unicode="&#61646;" d="M256 469.333333c-46.933333 0-85.333333-38.4-85.333333-85.333333s38.4-85.333333 85.333333-85.333333 85.333333 38.4 85.333333 85.333333-38.4 85.333333-85.333333 85.333333z m512 0c-46.933333 0-85.333333-38.4-85.333333-85.333333s38.4-85.333333 85.333333-85.333333 85.333333 38.4 85.333333 85.333333-38.4 85.333333-85.333333 85.333333z m-256 0c-46.933333 0-85.333333-38.4-85.333333-85.333333s38.4-85.333333 85.333333-85.333333 85.333333 38.4 85.333333 85.333333-38.4 85.333333-85.333333 85.333333z"  horiz-adv-x="1024" />

    
    <glyph glyph-name="cancel_px" unicode="&#61658;" d="M512 810.666667C276.053333 810.666667 85.333333 619.946667 85.333333 384s190.72-426.666667 426.666667-426.666667 426.666667 190.72 426.666667 426.666667S747.946667 810.666667 512 810.666667z m213.333333-579.84L665.173333 170.666667 512 323.84 358.826667 170.666667 298.666667 230.826667 451.84 384 298.666667 537.173333 358.826667 597.333333 512 444.16 665.173333 597.333333 725.333333 537.173333 572.16 384z"  horiz-adv-x="1024" />

    
    <glyph glyph-name="arrow_right_px" unicode="&#61659;" d="M426.666667 170.666667l213.333333 213.333333-213.333333 213.333333z"  horiz-adv-x="1024" />

    
    <glyph glyph-name="arrow_left_px" unicode="&#61661;" d="M597.333333 597.333333l-213.333333-213.333333 213.333333-213.333333z"  horiz-adv-x="1024" />

    
    <glyph glyph-name="arrow_drop_up_px" unicode="&#61664;" d="M298.666667 298.666667l213.333333 213.333333 213.333333-213.333333z"  horiz-adv-x="1024" />

    
    <glyph glyph-name="arrow_drop_down_px" unicode="&#61667;" d="M298.666667 469.333333l213.333333-213.333333 213.333333 213.333333z"  horiz-adv-x="1024" />

    
    <glyph glyph-name="apps_px" unicode="&#61670;" d="M170.666667 554.666667h170.666666V725.333333H170.666667z m256-512h170.666666v170.666666h-170.666666z m-256 0h170.666666v170.666666H170.666667z m0 256h170.666666v170.666666H170.666667z m256 0h170.666666v170.666666h-170.666666z m256 426.666666v-170.666666h170.666666V725.333333z m-256-170.666666h170.666666V725.333333h-170.666666z m256-256h170.666666v170.666666h-170.666666z m0-256h170.666666v170.666666h-170.666666z"  horiz-adv-x="1024" />

    
    <glyph glyph-name="keyboard_arrow_up_" unicode="&#61937;" d="M316.16 238.506667L512 433.92l195.84-195.413333L768 298.666667l-256 256-256-256z"  horiz-adv-x="1024" />

    
    <glyph glyph-name="keyboard_arrow_right" unicode="&#61939;" d="M366.506667 188.16L561.92 384 366.506667 579.84 426.666667 640l256-256-256-256z"  horiz-adv-x="1024" />

    
    <glyph glyph-name="keyboard_arrow_down_" unicode="&#61940;" d="M316.16 529.493333L512 334.08l195.84 195.413333L768 469.333333l-256-256-256 256z"  horiz-adv-x="1024" />

    
    <glyph glyph-name="keyboard_arrow_left_" unicode="&#61942;" d="M657.493333 188.16L462.08 384l195.413333 195.84L597.333333 640l-256-256 256-256z"  horiz-adv-x="1024" />

    
    <glyph glyph-name="upload_px" unicode="&#61958;" d="M384 213.333333h256v256h170.666667l-298.666667 298.666667-298.666667-298.666667h170.666667z m-170.666667-85.333333h597.333334v-85.333333H213.333333z"  horiz-adv-x="1024" />

    
    <glyph glyph-name="download_px" unicode="&#61962;" d="M810.666667 512h-170.666667V768H384v-256H213.333333l298.666667-298.666667zM213.333333 128v-85.333333h597.333334v85.333333z"  horiz-adv-x="1024" />

    
    <glyph glyph-name="wallpaper_px" unicode="&#62059;" d="M170.666667 725.333333h298.666666V810.666667H170.666667c-46.933333 0-85.333333-38.4-85.333334-85.333334v-298.666666h85.333334z m256-384l-170.666667-213.333333h512l-128 170.666667-86.613333-115.626667z m298.666666 192c0 35.413333-28.586667 64-64 64S597.333333 568.746667 597.333333 533.333333s28.586667-64 64-64S725.333333 497.92 725.333333 533.333333zM853.333333 810.666667h-298.666666v-85.333334h298.666666v-298.666666h85.333334V725.333333c0 46.933333-38.4 85.333333-85.333334 85.333334z m0-768h-298.666666v-85.333334h298.666666c46.933333 0 85.333333 38.4 85.333334 85.333334v298.666666h-85.333334zM170.666667 341.333333H85.333333v-298.666666c0-46.933333 38.4-85.333333 85.333334-85.333334h298.666666v85.333334H170.666667z"  horiz-adv-x="1024" />

    
    <glyph glyph-name="developer_mode_px" unicode="&#62082;" d="M298.666667 682.666667h426.666666v-85.333334h85.333334V768c0 46.933333-38.4 84.906667-85.333334 84.906667L298.666667 853.333333c-46.933333 0-85.333333-38.4-85.333334-85.333333v-170.666667h85.333334z m358.826666-494.506667L853.333333 384l-195.84 195.84L597.333333 519.253333 732.586667 384 597.333333 248.746667zM426.666667 248.746667L291.413333 384 426.666667 519.253333 366.506667 579.84 170.666667 384l195.84-195.84zM725.333333 85.333333H298.666667v85.333334H213.333333v-170.666667c0-46.933333 38.4-85.333333 85.333334-85.333333h426.666666c46.933333 0 85.333333 38.4 85.333334 85.333333v170.666667h-85.333334z"  horiz-adv-x="1024" />

    
    <glyph glyph-name="clear_px" unicode="&#62143;" d="M810.666667 622.506667L750.506667 682.666667 512 444.16 273.493333 682.666667 213.333333 622.506667 451.84 384 213.333333 145.493333 273.493333 85.333333 512 323.84 750.506667 85.333333 810.666667 145.493333 572.16 384z"  horiz-adv-x="1024" />

    
    <glyph glyph-name="create_px" unicode="&#62144;" d="M128 160V0h160L759.893333 471.893333l-160 160zM883.626667 595.626667a42.496 42.496 0 0 1 0 60.16l-99.84 99.84a42.496 42.496 0 0 1-60.16 0l-78.08-78.08 160-160z"  horiz-adv-x="1024" />

    
    <glyph glyph-name="add_circle_outline_" unicode="&#62153;" d="M554.666667 597.333333h-85.333334v-170.666666H298.666667v-85.333334h170.666666v-170.666666h85.333334v170.666666h170.666666v85.333334h-170.666666z m-42.666667 213.333334C276.48 810.666667 85.333333 619.52 85.333333 384s191.146667-426.666667 426.666667-426.666667 426.666667 191.146667 426.666667 426.666667S747.52 810.666667 512 810.666667z m0-768c-188.16 0-341.333333 153.173333-341.333333 341.333333s153.173333 341.333333 341.333333 341.333333 341.333333-153.173333 341.333333-341.333333-153.173333-341.333333-341.333333-341.333333z"  horiz-adv-x="1024" />

    
    <glyph glyph-name="add_px" unicode="&#62156;" d="M810.666667 341.333333h-256v-256h-85.333334v256H213.333333v85.333334h256V682.666667h85.333334v-256h256z"  horiz-adv-x="1024" />

    
    <glyph glyph-name="email_px" unicode="&#62192;" d="M853.333333 725.333333H170.666667c-46.933333 0-84.906667-38.4-84.906667-85.333333L85.333333 128c0-46.933333 38.4-85.333333 85.333334-85.333333h682.666666c46.933333 0 85.333333 38.4 85.333334 85.333333V640c0 46.933333-38.4 85.333333-85.333334 85.333333z m0-170.666666l-341.333333-213.333334-341.333333 213.333334V640l341.333333-213.333333 341.333333 213.333333z"  horiz-adv-x="1024" />

    
    <glyph glyph-name="warning_px" unicode="&#62305;" d="M42.666667 0h938.666666L512 810.666667z m512 128h-85.333334v85.333333h85.333334z m0 170.666667h-85.333334v170.666666h85.333334z"  horiz-adv-x="1024" />

    
    <glyph glyph-name="visibility_px" unicode="&#62320;" d="M512 725.333333C298.666667 725.333333 116.48 592.64 42.666667 405.333333 116.48 218.026667 298.666667 85.333333 512 85.333333s395.52 132.693333 469.333333 320C907.52 592.64 725.333333 725.333333 512 725.333333z m0-533.333333c-117.76 0-213.333333 95.573333-213.333333 213.333333s95.573333 213.333333 213.333333 213.333334 213.333333-95.573333 213.333333-213.333334-95.573333-213.333333-213.333333-213.333333z m0 341.333333c-70.826667 0-128-57.173333-128-128s57.173333-128 128-128 128 57.173333 128 128-57.173333 128-128 128z"  horiz-adv-x="1024" />

    
    <glyph glyph-name="search_px" unicode="&#62392;" d="M661.333333 298.666667h-33.706666l-11.946667 11.52A276.096 276.096 0 0 1 682.666667 490.666667 277.333333 277.333333 0 1 1 405.333333 213.333333c68.693333 0 131.84 25.173333 180.48 66.986667l11.52-11.946667v-33.706666l213.333334-212.906667L874.24 85.333333z m-256 0C299.093333 298.666667 213.333333 384.426667 213.333333 490.666667S299.093333 682.666667 405.333333 682.666667 597.333333 596.906667 597.333333 490.666667 511.573333 298.666667 405.333333 298.666667z"  horiz-adv-x="1024" />

    
    <glyph glyph-name="settings_px" unicode="&#62393;" d="M829.013333 342.186667c1.706667 13.653333 2.986667 27.306667 2.986667 41.813333s-1.28 28.16-2.986667 41.813333l90.026667 70.4c8.106667 6.4 10.24 17.92 5.12 27.306667l-85.333333 147.626667c-5.12 9.386667-16.64 12.8-26.026667 9.386666l-106.24-42.666666c-22.186667 17.066667-46.08 31.146667-72.106667 41.813333l-16.213333 113.066667A20.821333 20.821333 0 0 1 597.333333 810.666667h-170.666666c-10.666667 0-19.626667-7.68-20.906667-17.92l-16.213333-113.066667c-26.026667-10.666667-49.92-25.173333-72.106667-41.813333l-106.24 42.666666c-9.813333 3.84-20.906667 0-26.026667-9.386666l-85.333333-147.626667c-5.546667-9.386667-2.986667-20.906667 5.12-27.306667l90.026667-70.4c-1.706667-13.653333-2.986667-27.733333-2.986667-41.813333s1.28-28.16 2.986667-41.813333l-90.026667-70.4c-8.106667-6.4-10.24-17.92-5.12-27.306667l85.333333-147.626667c5.12-9.386667 16.64-12.8 26.026667-9.386666l106.24 42.666666c22.186667-17.066667 46.08-31.146667 72.106667-41.813333l16.213333-113.066667c1.28-10.24 10.24-17.92 20.906667-17.92h170.666666c10.666667 0 19.626667 7.68 20.906667 17.92l16.213333 113.066667c26.026667 10.666667 49.92 25.173333 72.106667 41.813333l106.24-42.666666c9.813333-3.84 20.906667 0 26.026667 9.386666l85.333333 147.626667c5.12 9.386667 2.986667 20.906667-5.12 27.306667zM512 234.666667c-82.346667 0-149.333333 66.986667-149.333333 149.333333s66.986667 149.333333 149.333333 149.333333 149.333333-66.986667 149.333333-149.333333-66.986667-149.333333-149.333333-149.333333z"  horiz-adv-x="1024" />

    
    <glyph glyph-name="list_px" unicode="&#62443;" d="M128 341.333333h85.333333v85.333334H128z m0-170.666666h85.333333v85.333333H128z m0 341.333333h85.333333V597.333333H128z m170.666667-170.666667h597.333333v85.333334H298.666667z m0-170.666666h597.333333v85.333333H298.666667zM298.666667 597.333333v-85.333333h597.333333V597.333333z"  horiz-adv-x="1024" />

    
    <glyph glyph-name="info_px" unicode="&#62454;" d="M512 810.666667C276.48 810.666667 85.333333 619.52 85.333333 384s191.146667-426.666667 426.666667-426.666667 426.666667 191.146667 426.666667 426.666667S747.52 810.666667 512 810.666667z m42.666667-640h-85.333334v256h85.333334z m0 341.333333h-85.333334V597.333333h85.333334z"  horiz-adv-x="1024" />

    
    <glyph glyph-name="help_outline_px" unicode="&#62467;" d="M469.333333 128h85.333334v85.333333h-85.333334z m42.666667 682.666667C276.48 810.666667 85.333333 619.52 85.333333 384s191.146667-426.666667 426.666667-426.666667 426.666667 191.146667 426.666667 426.666667S747.52 810.666667 512 810.666667z m0-768c-188.16 0-341.333333 153.173333-341.333333 341.333333s153.173333 341.333333 341.333333 341.333333 341.333333-153.173333 341.333333-341.333333-153.173333-341.333333-341.333333-341.333333z m0 597.333333c-94.293333 0-170.666667-76.373333-170.666667-170.666667h85.333334c0 46.933333 38.4 85.333333 85.333333 85.333334s85.333333-38.4 85.333333-85.333334c0-85.333333-128-74.666667-128-213.333333h85.333334c0 96 128 106.666667 128 213.333333 0 94.293333-76.373333 170.666667-170.666667 170.666667z"  horiz-adv-x="1024" />

    
    <glyph glyph-name="help_px" unicode="&#62468;" d="M512 810.666667C276.48 810.666667 85.333333 619.52 85.333333 384s191.146667-426.666667 426.666667-426.666667 426.666667 191.146667 426.666667 426.666667S747.52 810.666667 512 810.666667z m42.666667-725.333334h-85.333334v85.333334h85.333334z m88.32 330.666667l-38.4-39.253333C573.866667 345.6 554.666667 320 554.666667 256h-85.333334v21.333333c0 46.933333 19.2 89.6 49.92 120.746667l52.906667 53.76c15.786667 15.36 25.173333 36.693333 25.173333 60.16 0 46.933333-38.4 85.333333-85.333333 85.333333s-85.333333-38.4-85.333333-85.333333H341.333333c0 94.293333 76.373333 170.666667 170.666667 170.666667s170.666667-76.373333 170.666667-170.666667c0-37.546667-15.36-71.68-39.68-96z"  horiz-adv-x="1024" />

    
    <glyph glyph-name="done_px" unicode="&#62499;" d="M384 204.8L204.8 384l-59.733333-59.733333L384 85.333333 896 597.333333l-59.733333 59.733334z"  horiz-adv-x="1024" />

    
    <glyph glyph-name="delete_outline_px" unicode="&#62500;" d="M256 85.333333c0-46.933333 38.4-85.333333 85.333333-85.333333h341.333334c46.933333 0 85.333333 38.4 85.333333 85.333333V597.333333H256zM341.333333 512h341.333334v-426.666667H341.333333z m320 213.333333l-42.666666 42.666667h-213.333334l-42.666666-42.666667H213.333333v-85.333333h597.333334V725.333333z"  horiz-adv-x="1024" />

    
    <glyph glyph-name="delete_px" unicode="&#62506;" d="M256 85.333333c0-46.933333 38.4-85.333333 85.333333-85.333333h341.333334c46.933333 0 85.333333 38.4 85.333333 85.333333V597.333333H256zM810.666667 725.333333h-149.333334l-42.666666 42.666667h-213.333334l-42.666666-42.666667H213.333333v-85.333333h597.333334z"  horiz-adv-x="1024" />

    
    <glyph glyph-name="check_circle_px" unicode="&#62517;" d="M512 810.666667C276.48 810.666667 85.333333 619.52 85.333333 384s191.146667-426.666667 426.666667-426.666667 426.666667 191.146667 426.666667 426.666667S747.52 810.666667 512 810.666667z m-85.333333-640l-213.333334 213.333333 60.16 60.16L426.666667 291.413333l323.84 323.84L810.666667 554.666667z"  horiz-adv-x="1024" />

    
    <glyph glyph-name="build_px" unicode="&#62525;" d="M515.84 771.84C430.08 857.6 301.653333 875.093333 198.4 824.746667l185.173333-185.173334-128-128-185.173333 185.173334C20.48 593.066667 37.973333 465.493333 123.733333 379.733333a277.632 277.632 0 0 1 293.973334-63.146666l388.693333-388.693334c16.64-16.64 43.52-16.64 60.16 0l98.133333 98.133334a42.496 42.496 0 0 1 0 60.16L577.706667 473.6c39.253333 99.84 18.773333 217.6-61.866667 298.24z"  horiz-adv-x="1024" />

    
    <glyph glyph-name="account_circle_px" unicode="&#62547;" d="M512 810.666667C276.48 810.666667 85.333333 619.52 85.333333 384s191.146667-426.666667 426.666667-426.666667 426.666667 191.146667 426.666667 426.666667S747.52 810.666667 512 810.666667z m0-128c70.826667 0 128-57.173333 128-128s-57.173333-128-128-128-128 57.173333-128 128 57.173333 128 128 128z m0-605.866667a307.2 307.2 0 0 0-256 137.386667c1.28 84.906667 170.666667 131.413333 256 131.413333 84.906667 0 254.72-46.506667 256-131.413333a307.2 307.2 0 0 0-256-137.386667z"  horiz-adv-x="1024" />

    
    <glyph glyph-name="date" unicode="&#62244;" d="M227.541333 120.064h142.208v107.989333H227.541333v-107.989333z m213.333334 0h142.208v107.989333h-142.208v-107.989333z m213.333333 0h142.208v107.989333h-142.208v-107.989333z m-426.666667 179.968h142.208v107.989333H227.541333v-107.989333z m213.333334 0h142.208v107.989333h-142.208v-107.989333z m213.333333 0h142.208v107.989333h-142.208v-107.989333zM156.458667 48.085333h711.125333V480H156.458667v-431.914667zM768 768h64C894.805333 768 938.666667 723.712 938.666667 659.968l-0.128-626.517333c0-63.701333-50.901333-57.685333-113.706667-57.685334H199.424c-62.848 0-113.749333-6.016-113.749333 57.685334L85.290667 659.968C85.290667 723.669333 129.152 768 191.957333 768h64v-128h7.125334v-0.085333h71.125333V640H341.333333V768h341.333334v-128h85.333333V768z"  horiz-adv-x="1024" />

    
    <glyph glyph-name="attachment" unicode="&#62249;" d="M872.064 584.234667a227.2 227.2 0 0 1-160.426667 65.792h-0.64c-29.184 0-57.6-5.461333-84.693333-16.170667a224.554667 224.554667 0 0 1-74.965333-48.981333l-211.669334-209.237334a126.378667 126.378667 0 0 1-37.717333-90.88c0.085333-34.346667 13.610667-66.645333 38.186667-90.88s57.088-37.632 91.776-37.717333h0.256c34.645333 0 67.072 13.269333 91.434666 37.248l185.770667 183.594667a31.701333 31.701333 0 0 1 0 45.482666 32.64 32.64 0 0 1-45.824 0l-185.770667-183.594666a64.426667 64.426667 0 0 0-45.696-18.56h-0.085333a65.621333 65.621333 0 0 0-46.165333 18.901333 63.786667 63.786667 0 0 0-19.072 45.610667c-0.085333 17.194667 6.528 33.28 18.730666 45.269333l211.669334 209.322667a160.682667 160.682667 0 0 0 113.962666 46.336h0.469334a163.072 163.072 0 0 0 114.858666-46.976c30.549333-30.250667 47.445333-70.528 47.530667-113.450667s-16.554667-83.072-46.805333-112.981333l-224.554667-222.250667a239.146667 239.146667 0 0 0-168.874667-68.522667h-0.64c-64.256 0.170667-124.586667 24.917333-169.856 69.632s-70.272 104.362667-70.357333 167.893334a232.661333 232.661333 0 0 0 69.418667 167.338666l289.92 286.677334a31.701333 31.701333 0 0 1 0 45.482666 32.64 32.64 0 0 1-45.909334 0.128L216.405333 471.978667A296.661333 296.661333 0 0 1 128 258.986667a297.813333 297.813333 0 0 1 22.528-113.450667 303.872 303.872 0 0 1 167.68-165.888 309.333333 309.333333 0 0 1 114.688-22.272h0.810667a305.152 305.152 0 0 1 214.485333 87.424l224.554667 222.122667a221.44 221.44 0 0 1 65.877333 158.677333 222.976 222.976 0 0 1-66.602667 158.592z"  horiz-adv-x="1024" />

    
    <glyph glyph-name="inbox_px" unicode="&#62253;" d="M810.666667 768H212.906667c-47.36 0-84.48-37.973333-84.48-85.333333L128 85.333333c0-46.933333 37.546667-85.333333 84.906667-85.333333H810.666667c46.933333 0 85.333333 38.4 85.333333 85.333333V682.666667a85.333333 85.333333 0 0 1-85.333333 85.333333z m0-512h-170.666667c0-70.826667-57.6-128-128-128s-128 57.173333-128 128H213.333333V682.666667h597.333334v-426.666667z"  horiz-adv-x="1024" />

    
    <glyph glyph-name="sorter" unicode="&#62259;" d="M298.666667 298.666667h426.666666l-213.333333-298.666667-213.333333 298.666667z m0 170.666666l213.333333 298.666667 213.333333-298.666667H298.666667z"  horiz-adv-x="1024" />

    
    <glyph glyph-name="sorter_down" unicode="&#62236;" d="M554.666667 298.666667h128l-166.4-170.666667L341.333333 298.666667h128V640h85.333334z"  horiz-adv-x="1024" />

    
    <glyph glyph-name="sorter_up" unicode="&#62237;" d="M554.666667 469.333333h128l-166.4 170.666667L341.333333 469.333333h128v-341.333333h85.333334z"  horiz-adv-x="1024" />

    
    <glyph glyph-name="funnel" unicode="&#62238;" d="M512 768c-52.992 0-102.869333-3.114667-149.632-9.386667-46.762667-6.229333-87.466667-14.848-122.24-25.856-34.773333-11.008-62.122667-23.765333-82.133333-38.272S128 664.490667 128 647.978667V576l288-288v-240c0-13.482667 9.386667-24.874667 28.16-34.133333 18.730667-9.258667 41.344-13.866667 67.84-13.866667s49.109333 4.608 67.84 13.866667c18.773333 9.258667 28.16 20.650667 28.16 34.133333V288L896 576V648.021333c0 16.469333-9.984 32-29.994667 46.506667s-47.36 27.221333-82.133333 38.229333c-34.730667 11.008-75.52 19.626667-122.24 25.856A1130.496 1130.496 0 0 1 512 768zM192.085333 675.328c9.173333 4.437333 20.181333 8.874667 32.938667 13.354667s26.752 8.448 42.069333 11.946666c16.853333 4.053333 34.816 7.594667 53.973334 10.666667 19.114667 3.157333 38.997333 5.717333 59.690666 7.68A1388.288 1388.288 0 0 0 512 725.333333a1339.093333 1339.093333 0 0 0 131.242667-6.314666c20.693333-2.005333 40.533333-4.565333 59.733333-7.68 19.114667-3.114667 37.12-6.656 53.930667-10.666667 15.317333-3.541333 29.354667-7.552 42.069333-11.989333s23.765333-8.917333 32.938667-13.354667c5.589333-3.114667 10.197333-5.888 13.781333-8.32s6.101333-4.352 7.637333-5.674667c-1.536-1.322667-4.096-3.242667-7.68-5.674666s-8.106667-5.205333-13.738666-8.32c-9.173333-4.437333-20.181333-8.874667-32.938667-13.354667s-26.752-8.448-42.069333-11.946667c-16.853333-4.053333-34.816-7.594667-53.973334-10.666666-19.114667-3.157333-38.997333-5.717333-59.690666-7.68A1388.288 1388.288 0 0 0 512 597.333333a1339.093333 1339.093333 0 0 0-131.242667 6.314667c-20.693333 2.005333-40.533333 4.565333-59.733333 7.68-19.114667 3.114667-37.12 6.656-53.930667 10.666667-15.317333 3.541333-29.354667 7.552-42.069333 11.989333s-23.765333 8.917333-32.938667 13.354667a176.213333 176.213333 0 0 0-13.781333 8.32A91.008 91.008 0 0 0 170.666667 661.333333c1.536 1.322667 4.096 3.242667 7.68 5.674667a176.213333 176.213333 0 0 0 13.738666 8.32z"  horiz-adv-x="1024" />

    
    <glyph glyph-name="miniprogram" unicode="&#62239;" d="M512-128C229.248-128 0 101.248 0 384S229.248 896 512 896s512-229.248 512-512-229.248-512-512-512z m0 42.666667c259.2 0 469.333333 210.133333 469.333333 469.333333S771.2 853.333333 512 853.333333 42.666667 643.2 42.666667 384s210.133333-469.333333 469.333333-469.333333z m92.288 661.333333C671.146667 576 725.333333 523.008 725.333333 457.6c0-59.434667-44.885333-108.544-103.253333-116.949333-0.725333-0.170667-1.493333-0.213333-2.218667-0.341334-1.365333-0.170667-2.688-0.426667-4.096-0.426666a28.245333 28.245333 0 0 0-28.544 27.989333c0 13.525333 9.813333 24.832 22.869334 27.392v0.042667c32.597333 2.901333 58.154667 29.653333 58.154666 62.293333 0 34.56-28.629333 62.549333-63.957333 62.549333-35.114667 0-63.573333-27.690667-63.914667-61.952 0.512-2.048 0.426667-166.4-0.128-168.576-5.248-60.672-57.173333-108.330667-120.533333-108.330666C352.853333 181.333333 298.666667 234.282667 298.666667 299.690667c0 59.477333 44.928 108.586667 103.338666 116.992l1.877334 0.256a28.245333 28.245333 0 0 0 32.853333-27.52 28.16 28.16 0 0 0-26.965333-27.818667v-0.128a63.018667 63.018667 0 0 1-54.016-61.781333c0-34.56 28.629333-62.549333 63.957333-62.549334 33.536 0 61.013333 25.301333 63.658667 57.429334l-0.128 163.029333c0 65.408 54.186667 118.4 121.045333 118.4z"  horiz-adv-x="1024" />

    
    <glyph glyph-name="ios" unicode="&#62240;" d="M512-128C229.248-128 0 101.248 0 384S229.248 896 512 896s512-229.248 512-512-229.248-512-512-512z m0 42.666667c259.2 0 469.333333 210.133333 469.333333 469.333333S771.2 853.333333 512 853.333333 42.666667 643.2 42.666667 384s210.133333-469.333333 469.333333-469.333333z m93.141333 617.472c30.464 0 62.72-17.152 85.76-46.805334-75.349333-42.581333-63.104-153.728 13.098667-183.466666-10.453333-24.021333-15.488-34.688-29.013333-55.893334-18.858667-29.525333-45.397333-66.389333-78.378667-66.730666h-0.597333c-28.586667 0-36.352 19.413333-75.221334 19.413333h-0.597333c-39.509333-0.213333-48-19.541333-76.672-19.541333h-0.64c-32.981333 0.341333-58.197333 33.578667-77.013333 63.232-52.693333 82.773333-58.197333 180.010667-25.685334 231.594666 23.168 36.608 59.648 58.026667 93.866667 58.026667 34.901333 0 56.832-19.626667 85.632-19.626667 28.074667 0 45.141333 19.797333 85.461333 19.797334zM596.266667 640c4.053333-28.074667-7.082667-55.466667-21.845334-74.752-15.232-20.266667-41.386667-36.138667-66.986666-36.138667h-1.92c-4.778667 26.794667 7.466667 54.357333 22.357333 72.96 16.426667 20.522667 44.373333 36.266667 68.394667 37.930667z"  horiz-adv-x="1024" />

    
    <glyph glyph-name="android" unicode="&#62241;" d="M512-128C229.248-128 0 101.248 0 384S229.248 896 512 896s512-229.248 512-512-229.248-512-512-512z m0 42.666667c259.2 0 469.333333 210.133333 469.333333 469.333333S771.2 853.333333 512 853.333333 42.666667 643.2 42.666667 384s210.133333-469.333333 469.333333-469.333333zM376.234667 370.005333V462.933333h271.530666V260.864c0-8.234667-5.333333-16.896-13.824-16.896h-33.450666v-63.232c0-16.213333-12.970667-29.184-29.098667-29.184h-0.597333a27.008 27.008 0 0 0-17.834667 6.528 29.098667 29.098667 0 0 0-10.666667 22.613333v63.274667h-59.392v-63.232a29.056 29.056 0 1 0-58.154666 0v63.232h-34.688c-8.362667 0-13.824 8.661333-13.824 17.066667z m320 112.384c16.128 0 29.098667-13.013333 29.098666-29.184v-116.778666a29.056 29.056 0 1 0-58.197333 0v116.778666c0 16.170667 12.970667 29.184 29.098667 29.184z m-368.469334 0c16.128 0 29.098667-13.013333 29.098667-29.184v-116.778666a29.056 29.056 0 1 0-58.197333 0v116.778666c0 16.170667 12.970667 29.184 29.098666 29.184z m251.136 105.685334c58.666667-25.898667 67.285333-87.466667 68.352-105.813334H376.234667c1.237333 18.218667 9.941333 80.64 68.352 106.069334l-22.186667 26.282666c-0.426667 0.853333 0.256 2.048 1.621333 2.986667s2.773333 1.109333 3.242667 0.512l23.04-27.221333c16.469333 6.4 36.693333 10.453333 61.568 10.325333 24.746667 0 44.842667-4.138667 61.354667-10.666667l23.253333 27.733334c0.384 0.682667 1.962667 0.426667 3.285333-0.512 1.322667-1.109333 2.048-2.432 1.578667-3.072z m-126.549333-60.586667a16.256 16.256 0 0 1 16.384 16.213333 16.341333 16.341333 0 0 1-32.725333 0c0-8.917333 7.381333-16.213333 16.341333-16.213333z m119.296 0c8.96 0 16.341333 7.296 16.341333 16.213333a16.341333 16.341333 0 0 1-32.725333 0c0-8.917333 7.381333-16.213333 16.384-16.213333z"  horiz-adv-x="1024" />

    
    <glyph glyph-name="html" unicode="&#62242;" d="M512-128C229.248-128 0 101.248 0 384S229.248 896 512 896s512-229.248 512-512-229.248-512-512-512z m0 42.666667c259.2 0 469.333333 210.133333 469.333333 469.333333S771.2 853.333333 512 853.333333 42.666667 643.2 42.666667 384s210.133333-469.333333 469.333333-469.333333zM298.666667 618.666667h426.666666l-38.869333-431.957334-174.72-48.042666-174.250667 48z m79.36-88.32l13.952-160.256h185.6l-6.229334-68.693334-59.349333-16-59.733333 15.786667-3.84 42.112H394.837333L402.346667 260.266667l109.653333-29.952 109.44 30.08 15.018667 162.218666h-195.584l-4.437334 54.613334h204.458667l4.693333 53.12z"  horiz-adv-x="1024" />

    
    <glyph glyph-name="windows" unicode="&#62243;" d="M512-128C229.248-128 0 101.248 0 384S229.248 896 512 896s512-229.248 512-512-229.248-512-512-512z m0 42.666667c259.2 0 469.333333 210.133333 469.333333 469.333333S771.2 853.333333 512 853.333333 42.666667 643.2 42.666667 384s210.133333-469.333333 469.333333-469.333333zM394.24 574.677333s40.533333 27.52 101.333333 21.888c30.976-2.773333 53.461333-16.256 75.434667-30.890666l-44.458667-152.917334s-39.381333 27.605333-75.946666 30.933334a172.373333 172.373333 0 0 1-100.778667-20.821334z m5.12-308.650666c-54.058667 5.12-92.288-15.701333-100.693333-20.736l43.861333 151.168s40.490667 28.074667 101.845333 22.442666c30.976-2.773333 53.504-16.213333 75.434667-30.933333l-44.458667-152.874667s-40.021333 27.562667-75.946666 30.933334z m271.786667-58.453334c-11.818667-5.546667-51.2-23.04-97.28-17.450666-31.018667 3.413333-53.504 15.786667-74.88 29.226666l45.013333 152.32c20.309333-13.397333 42.794667-25.813333 72.533333-29.141333 54.613333-6.144 99.626667 19.072 99.626667 19.072z m51.285333 177.066667c-11.264-5.589333-51.285333-23.04-97.408-17.408-30.421333 3.413333-53.461333 15.786667-74.325333 29.781333l44.501333 152.362667c20.224-13.44 42.752-25.856 72.576-29.269333 54.613333-6.144 100.224 19.2 100.224 19.2z"  horiz-adv-x="1024" />

    
    <glyph glyph-name="Qrcode" unicode="&#62266;" d="M42.656 853.344h426.656v-426.656H42.656V853.344zM128 768v-256h256V768H128z m85.344-85.344h85.344v-85.344H213.344V682.656zM42.656 341.344h426.656v-426.656H42.656V341.344zM128 256v-256h256v256H128z m85.344-85.344h85.344v-85.344H213.344v85.344z m512 0h85.344v-85.344h-85.344v85.344z m170.656 0h85.344v-85.344H896v85.344z m-341.344 0H640v-85.344h-85.344v85.344z m170.688 170.688h85.344V256h-85.344v85.344z m170.656 0h85.344V256H896v85.344z m-341.344 0H640V256h-85.344v85.344zM725.344 0h85.344v-85.344h-85.344V0zM896 0h85.344v-85.344H896V0z m-341.344 0H640v-85.344h-85.344V0z m256 256H896v-85.344h-85.344V256zM640 256h85.344v-85.344H640V256z m170.656-170.656H896V0h-85.344v85.344z m-170.656 0h85.344V0H640v85.344z m-85.344 768h426.656v-426.656H554.656V853.344zM640 768v-256h256V768h-256z m85.344-85.344h85.344v-85.344h-85.344V682.656z"  horiz-adv-x="1024" />

    
    <glyph glyph-name="action_explore" unicode="&#62730;" d="M512 430.933333c-26.026667 0-46.933333-20.906667-46.933333-46.933333s20.906667-46.933333 46.933333-46.933333c26.026667 0 46.933333 20.906667 46.933333 46.933333s-20.906667 46.933333-46.933333 46.933333zM512 810.666667C276.48 810.666667 85.333333 619.52 85.333333 384s191.146667-426.666667 426.666667-426.666667 426.666667 191.146667 426.666667 426.666667S747.52 810.666667 512 810.666667z m93.44-520.106667L256 128l162.56 349.44L768 640l-162.56-349.44z"  horiz-adv-x="1024" />

    
    <glyph glyph-name="nav_apps" unicode="&#63556;" d="M170.666667 554.666667h170.666666V725.333333H170.666667v-170.666666z m256-512h170.666666v170.666666h-170.666666v-170.666666z m-256 0h170.666666v170.666666H170.666667v-170.666666z m0 256h170.666666v170.666666H170.666667v-170.666666z m256 0h170.666666v170.666666h-170.666666v-170.666666z m256 426.666666v-170.666666h170.666666V725.333333h-170.666666z m-256-170.666666h170.666666V725.333333h-170.666666v-170.666666z m256-256h170.666666v170.666666h-170.666666v-170.666666z m0-256h170.666666v170.666666h-170.666666v-170.666666z"  horiz-adv-x="1024" />

    
    <glyph glyph-name="social_notifications" unicode="&#63668;" d="M512-42.666667c46.933333 0 85.333333 38.4 85.333333 85.333334h-170.666666a85.333333 85.333333 0 0 1 85.333333-85.333334z m256 256v213.333334c0 130.986667-69.973333 240.64-192 269.653333V725.333333c0 35.413333-28.586667 64-64 64s-64-28.586667-64-64v-29.013333C325.546667 667.306667 256 558.08 256 426.666667v-213.333334l-85.333333-85.333333v-42.666667h682.666666v42.666667l-85.333333 85.333333z"  horiz-adv-x="1024" />

    
    <glyph glyph-name="social_poll" unicode="&#63680;" d="M810.666667 768H213.333333c-46.933333 0-85.333333-38.4-85.333333-85.333333v-597.333334c0-46.933333 38.4-85.333333 85.333333-85.333333h597.333334c46.933333 0 85.333333 38.4 85.333333 85.333333V682.666667c0 46.933333-38.4 85.333333-85.333333 85.333333zM384 170.666667H298.666667v298.666666h85.333333v-298.666666z m170.666667 0h-85.333334V597.333333h85.333334v-426.666666z m170.666666 0h-85.333333v170.666666h85.333333v-170.666666z"  horiz-adv-x="1024" />

    
    <glyph glyph-name="social_thumb_up_alt" unicode="&#63714;" d="M896 554.666667h-269.226667l40.533334 194.986666 1.28 13.653334c0 17.493333-7.253333 33.706667-18.773334 45.226666L604.586667 853.333333 323.84 572.16C308.053333 556.8 298.666667 535.466667 298.666667 512v-426.666667c0-46.933333 38.4-85.333333 85.333333-85.333333h384c35.413333 0 65.706667 21.333333 78.506667 52.053333l128.853333 300.8c3.84 9.813333 5.973333 20.053333 5.973333 31.146667v85.333333c0 46.933333-38.4 85.333333-85.333333 85.333334zM42.666667 512h170.666666v-512H42.666667V512z"  horiz-adv-x="1024" />

    


  </font>
</defs>
</svg>
